<?xml version="1.0" encoding="utf-8"?>
<!-- Generator: Adobe Illustrator 24.3.0, SVG Export Plug-In . SVG Version: 6.00 Build 0)  -->
<svg version="1.1" id="Слой_1" xmlns="http://www.w3.org/2000/svg" xmlns:xlink="http://www.w3.org/1999/xlink" x="0px" y="0px"
	 viewBox="0 0 1925.9 456.5" style="enable-background:new 0 0 1925.9 456.5;" xml:space="preserve">
<style type="text/css">
	.st0{fill:#FCFCFC;}
	.st1{fill:#FCFCFC;stroke:#F9F9F9;stroke-miterlimit:10;}
	.st2{fill:#FFFFFF;}
</style>
<g id="Слой_1_1_">
	<path d="M559.5,0c-7.3,2.7-15,3.8-23.1,3.5c-16.9-1.6-33.9-2.7-50.9-3.5L1.9-0.1C-4-0.1-8.1,6-5.6,11.4c0.1,0.2,0.2,0.4,0.3,0.6
		c1.2,2.4,1.1,5.2-0.1,7.5c-2.8,5.6-2.2,12.2,1.1,17.3c0.9,1.4,1.3,3,1.2,4.7c-0.3,8.9-0.2,17.9-0.2,26.8c0,1.6,0,3.2-0.1,4.8
		c-0.3,4,2.3,7.6,6.1,8.6c32.9,8.6,74.1,9.2,83.1,9.2c1.2,0,2.3,0.2,3.4,0.7c34.5,16.2,28.6,35.9,23.2,45.1
		c-2.1,3.6-1.2,8.2,2.1,10.7c33.6,25.6,71.4-38.6,93.1-23.5c22,15.3-26.3,106.2-30.7,114.4c-0.2,0.4-0.4,0.8-0.5,1.3
		C127,386.2,260.6,437,271,440.7c0.4,0.1,0.8,0.3,1.2,0.3c98.8,18.5,150.6-64.7,134.9-140c-11.8-56.7-85-97.7-76-150
		c21-122,186.5-110.1,270.5-127.1c52.6-10.6,231-18.2,361.2-17.5c0.4,0,0.9,0,1.3-0.1c0.4-0.2,1.2-0.2,1.6-0.3
		c0.1,0,0.3-0.1,0.4-0.1C973,5,979,4,986,3.1c1.8-0.1,4.1-1.2,5.9-1.2c0.7-0.2,1.5,0,2.4,0.3c2.2,0.6,4.6,0.2,6.5-1.1
		c0.5-0.3,1.1-0.6,1.9-0.8c0.7-0.1,1.3-0.2,2-0.3L559.5,0z"/>
	<path class="st0" d="M583.4,81.1"/>
	<path class="st0" d="M279.4,245.8"/>
	<path class="st0" d="M414.4,326.7"/>
	<path class="st1" d="M1554.5,250.8"/>
	<path class="st0" d="M406.5,235.8"/>
	<path class="st2" d="M218,140.9c0,0,1,30-18,72"/>
	<path class="st2" d="M124,122.9c0,0,0-23-36-38c0,0,38,7,36,39"/>
	<path class="st2" d="M9,75.9c0,0,39,9,49,6"/>
	<path class="st2" d="M115,137.9c0,0-3,11,12,12S117,150.9,115,137.9z"/>
	<path class="st2" d="M394.3,339.9c-6.8,3.5-19,12.3-21.8,31.1c-0.6,3.8,3.3,6.8,6.9,5.3c10.9-4.6,29.1-15.3,21.8-33.8
		C400.1,339.7,396.9,338.6,394.3,339.9z"/>
	<path class="st2" d="M183,277.9l31.9,2.6c3.2,0.2,5.6,3.1,5.1,6.3c-2,15-5.3,55.7,11.7,86.8c2,3.7-0.7,8.3-4.9,8.3h-19.4
		c-1.7,0-3.3-0.8-4.4-2.1c-5.5-6.9-25.4-32.5-27.1-95.9C175.9,280.6,179.7,277.7,183,277.9z"/>
	<path class="st2" d="M363,71.9c0.8-0.6-52,29-45,75S323,98.9,363,71.9z"/>
</g>
<g id="Слой_2_1_">
</g>
<path d="M857.1,187.6"/>
<path d="M489.4,0.1c1.6,0.2,3.1,0.4,4.8,0.7c0.1,0,0.2,0.1,0.3,0.1c0.3,0.1,0.8,0.1,1.1,0.2c0.3,0.1,0.6,0.1,0.9,0.1
	c3.3,0,6.6,0,10,0C500.7,0.8,495.1,0.4,489.4,0.1z"/>
<path d="M1166.9,5c0.1-0.1,0.1-0.3,0.2-0.4c1.7-3.6-0.9-7.6-4.7-7.9c-0.3,0-0.5,0-0.8,0L566.9-3.3c-4,2.1-8.1,3.7-12.4,4.8
	c78.7,1.4,163.1,5.9,192.1,11.7c58.2,11.8,172.8,3.5,187.3,88c6.2,36.2-44.5,64.6-52.6,103.9c-10.9,52.1,25,109.8,93.4,97
	c0.3,0,0.6-0.1,0.8-0.2c7.2-2.6,99.7-37.7,65.5-139.3c-0.1-0.3-0.2-0.6-0.3-0.9c-3-5.7-36.5-68.6-21.3-79.2
	c15-10.5,41.2,34,64.5,16.3c2.3-1.7,2.9-4.9,1.5-7.4c-3.7-6.4-7.8-20,16.1-31.2c0.8-0.3,1.5-0.5,2.4-0.5c6.2,0,34.8-0.4,57.5-6.4
	c2.6-0.7,4.4-3.2,4.2-6c-0.1-1.1-0.1-2.2-0.1-3.3c0-6.2,0.1-12.4-0.1-18.6c-0.1-1.2,0.2-2.3,0.8-3.3c2.3-3.5,2.7-8.1,0.8-12
	C1166.1,8.6,1166,6.7,1166.9,5z"/>
<path d="M1278.2,54.4c4.7-27.2,21.5-43.2,43.3-53.1c-1.4,0-2.9,0-4.3,0.1c-79.3,0.6-158.4-6.3-237.6-7.3c0,3.7,0,7.5,0,11.2
	c0,1,0,1.9-0.1,2.9c-0.2,2.4,1.4,4.5,3.6,5.1c19.5,5.1,44,5.5,49.4,5.5c0.7,0,1.4,0.1,2,0.4c20.5,9.6,17,21.3,13.8,26.8
	c-1.2,2.1-0.7,4.9,1.2,6.4c20,15.2,42.4-22.9,55.3-14c13.1,9.1-15.6,63.1-18.2,68c-0.1,0.2-0.2,0.5-0.3,0.8
	c-29.3,87.1,50,117.3,56.2,119.5c0.2,0.1,0.5,0.2,0.7,0.2c58.7,11,89.5-38.4,80.1-83.2C1316.4,109.8,1272.9,85.5,1278.2,54.4z"/>
<path d="M1884.1,18c-1.1-2.1-1.2-4.7-0.1-6.9c0.1-0.2,0.2-0.4,0.3-0.6c2.3-5-1.5-10.5-6.9-10.5l-508.9,0.1
	c-17.1,0.7-34.2,1.2-51.3,1.3c-25.2,0.2-50.4-0.4-75.6-1.3l-283.9,0c0.6,0.1,1.2,0.2,1.8,0.3c0.7,0.2,1.3,0.5,1.7,0.7
	c1.7,1.2,3.9,1.6,6,1c0.8-0.3,1.6-0.5,2.2-0.3c1.7,0,3.8,1,5.4,1.1c6.4,0.8,11.9,1.7,18.3,2.6c0.1,0,0.3,0.1,0.4,0.1
	c0.4,0.1,1.1,0.1,1.5,0.3c0.4,0.1,0.8,0.1,1.2,0.1c119.4-0.6,283.1,6.3,331.3,16.1c77,15.6,228.8,4.7,248.1,116.6
	c8.3,48-58.9,85.6-69.7,137.6c-14.4,69.1,33.1,145.4,123.7,128.4c0.4,0,0.7-0.2,1.1-0.3c9.5-3.4,132.1-50,86.8-184.4
	c-0.1-0.5-0.3-0.8-0.5-1.2c-4-7.5-48.3-90.9-28.2-104.9c19.9-13.8,54.6,45,85.4,21.6c3-2.3,3.9-6.5,1.9-9.8
	c-5-8.4-10.4-26.5,21.3-41.4c1-0.5,2-0.6,3.1-0.6c8.3,0,46-0.6,76.2-8.4c3.5-0.9,5.9-4.2,5.6-7.9c-0.1-1.5-0.1-2.9-0.1-4.4
	c0-8.2,0.1-16.4-0.2-24.6c-0.1-1.6,0.3-3,1.1-4.3C1886.2,29.2,1886.7,23.1,1884.1,18z"/>
<path d="M578.2,36c3.4-19.8,14.3-32.7,29-41.3c-0.6,0-1.3,0-1.9-0.1c-9.9-0.4-19.9-1.1-29.8-1.5c-2.7,1.4-5.6,2.6-8.5,3.5
	c-9.5,5-19.6,7.2-30.6,6.8c-19-1.8-38-3-57-3.8c-23.6-1-47.1-1.4-70.7-1.5c0.5,1.2,1.5,2.2,2.8,2.6c16.7,4.4,37.6,4.7,42.2,4.7
	c0.6,0,1.2,0.1,1.7,0.4c17.5,8.2,14.5,18.2,11.8,22.9c-1.1,1.8-0.6,4.2,1.1,5.4c17.1,13,36.2-19.6,47.3-11.9
	c11.2,7.8-13.3,53.9-15.6,58.1c-0.1,0.2-0.2,0.4-0.3,0.7c-25.1,74.4,42.7,100.2,48,102.1c0.2,0.1,0.4,0.2,0.6,0.2
	c50.2,9.4,76.4-32.8,68.5-71.1C612,89.2,587.6,71.4,580,51.7C578.1,46.6,577.3,41.4,578.2,36z"/>
<path class="st2" d="M1187.1,129l17.9,1.5c1.8,0.1,3.1,1.7,2.9,3.5c-1.1,8.4-3,31.3,6.6,48.8c1.1,2.1-0.4,4.7-2.8,4.7h-10.9
	c-1,0-1.9-0.4-2.5-1.2c-3.1-3.9-14.3-18.3-15.2-53.9C1183.1,130.5,1185.2,128.9,1187.1,129z"/>
<path class="st2" d="M1306,181.4c-6.8,3.5-19,12.3-21.8,31.1c-0.6,3.8,3.3,6.8,6.9,5.3c10.9-4.6,29.1-15.3,21.8-33.8
	C1311.8,181.2,1308.6,180.1,1306,181.4z"/>
<path class="st2" d="M502.7,86.4l17.9,1.5c1.8,0.1,3.1,1.7,2.9,3.5c-1.1,8.4-3,31.3,6.6,48.8c1.1,2.1-0.4,4.7-2.8,4.7h-10.9
	c-1,0-1.9-0.4-2.5-1.2c-3.1-3.9-14.3-18.3-15.2-53.9C498.8,87.9,500.9,86.3,502.7,86.4z"/>
<path class="st2" d="M590,132.2c-6.8,3.5-19,12.3-21.8,31.1c-0.6,3.8,3.3,6.8,6.9,5.3c10.9-4.6,29.1-15.3,21.8-33.8
	C595.8,132,592.6,130.9,590,132.2z"/>
<path class="st2" d="M892.4,206.6l17.9,1.5c1.8,0.1,3.1,1.7,2.9,3.5c-1.1,8.4-3,31.3,6.6,48.8c1.1,2.1-0.4,4.7-2.8,4.7h-10.9
	c-1,0-1.9-0.4-2.5-1.2c-3.1-3.9-14.3-18.3-15.2-53.9C888.4,208.1,890.5,206.5,892.4,206.6z"/>
<path class="st2" d="M1011.3,246.9c-6.8,3.5-19,12.3-21.8,31.1c-0.6,3.8,3.3,6.8,6.9,5.3c10.9-4.6,29.1-15.3,21.8-33.8
	C1017.1,246.7,1013.9,245.6,1011.3,246.9z"/>
<path class="st2" d="M1523.3,265l31.9,2.6c3.2,0.2,5.6,3.1,5.1,6.3c-2,15-5.3,55.7,11.7,86.8c2,3.7-0.7,8.3-4.9,8.3h-19.4
	c-1.7,0-3.3-0.8-4.4-2.1c-5.5-6.9-25.4-32.5-27.1-95.9C1516.2,267.7,1520,264.8,1523.3,265z"/>
<path class="st2" d="M1707.3,298.9c-6.8,3.5-19,12.3-21.8,31.1c-0.6,3.8,3.3,6.8,6.9,5.3c10.9-4.6,29.1-15.3,21.8-33.8
	C1713.1,298.7,1709.9,297.6,1707.3,298.9z"/>
<path class="st2" d="M1279.8,28c-6.4,7-17.5,22-10.9,37l13.8-37.7C1281.8,27.5,1280.8,27.8,1279.8,28z"/>
<path class="st2" d="M1590.7,123.4c0,0,1,30-18,72"/>
<path class="st2" d="M950.3,79.6c0,0,1,30-18,72"/>
<path class="st2" d="M1562.5,84.9c0,0,0-23-36-38"/>
<path class="st2" d="M1794.6,69.7c-37.5,10.6-40.3,33.5-40.3,33.5"/>
<path class="st2" d="M1773.2,125.2c-2,13-27,13-12,12S1773.2,125.2,1773.2,125.2"/>
<path class="st2" d="M1084.7,93.7c-1.7,11.5-23.2,7.2-15.4,5.2"/>
<path class="st2" d="M1095.6,55.4c-18.4,7.7-18.4,19.4-18.4,19.4"/>
<path d="M1928,62l-50.6-62l-0.7,75c0,0,43.7-16.4,50,2.3c0-4,0.4-7.8,1.1-11.6C1927.8,64.5,1927.9,63.2,1928,62z"/>
<polygon points="1885.8,0 1925.9,1.3 1925.9,59.4 1864.2,9.9 "/>
<path d="M461.5,43.7c0,0,66.6-22.5,51.4,8.7C497.6,83.6,544.2,29,544.2,29l-76,0.9L461.5,43.7z"/>
<path d="M598.6,24.5c0,0-27.6-2.9-18,28.7c9.6,31.6-29.6-20.8-29.6-20.8l47.6-11.6V24.5z"/>
<polyline points="578.2,-0.1 558.8,21.9 491.2,3.2 494.4,0 "/>
<path d="M697.6,14c0,0,41.7-3.2,73.9,3.1C803.7,23.4,761,0.9,761,0.9L697.6,14z"/>
<path d="M1282.2,40.1c0,0,7.7-35.7,55.5-16.2l-30.9-13.2l-16.5,8.9L1282.2,40.1z"/>
</svg>
