<?xml version="1.0" encoding="utf-8"?>
<!-- Generator: Adobe Illustrator 24.3.0, SVG Export Plug-In . SVG Version: 6.00 Build 0)  -->
<svg version="1.1" xmlns="http://www.w3.org/2000/svg" xmlns:xlink="http://www.w3.org/1999/xlink" x="0px" y="0px"
	 viewBox="0 0 1925.9 456.5" style="enable-background:new 0 0 1925.9 456.5;" xml:space="preserve">
<style type="text/css">
	.st0{fill:#F300B4;}
	.st1{fill:#FCFCFC;}
	.st2{fill:#FCFCFC;stroke:#F9F9F9;stroke-miterlimit:10;}
</style>
<g id="Слой_1">
	<path class="st0" d="M965,5.9C972,5,979,4,986.1,3.1c1.8-0.1,3.5-0.1,5.3,0c1.6-0.4,3.3-0.7,4.9-0.9c2.1-0.8,4.3-1.4,6.5-1.9
		c0.7-0.1,1.3-0.2,2-0.3H6.6c0,6.3-0.9,12.6-2.9,18.8C2.3,25.6-0.2,32.2-3,38.6c-0.5,9.9-0.3,19.7-0.3,29.6c0,3.9-0.3,7.7-0.9,11.4
		c37.7,11.7,91.6,11.1,91.6,11.1c49,22,21,51,21,51c35,39,76-34,99-18s-31,115-31,115c-52,153,95,202,95,202c174,33,75-134,96-256
		s150-144,234-161c51.7-10.5,226.7-17.1,362-17.5C963.9,6.2,964.5,6,965,5.9z"/>
	<path class="st1" d="M205.7,244.8c0,0-73.3,111,81.7,180C287.5,424.8,182,352.8,205.7,244.8z"/>
	<path class="st1" d="M583.4,81.1"/>
	<path class="st1" d="M-3.4,58.1c0,2.1,0,4.2,0,6.2C21.8,72.8,56.8,79,98.2,71.1C98.2,71.1,47.4,70.9-3.4,58.1z"/>
	<path class="st1" d="M279.4,245.8"/>
	<path class="st1" d="M414.4,326.7"/>
	<path class="st2" d="M1554.5,250.8"/>
	<path class="st1" d="M406.5,235.8"/>
	<path class="st1" d="M218.2,241.4c0,0-35,51.6,37.3,84.8C255.4,326.3,206.4,291.9,218.2,241.4z"/>
</g>
<g id="Слой_2">
</g>
</svg>
