<?xml version="1.0" encoding="utf-8"?>
<!-- Generator: Adobe Illustrator 24.3.0, SVG Export Plug-In . SVG Version: 6.00 Build 0)  -->
<svg version="1.1" xmlns="http://www.w3.org/2000/svg" xmlns:xlink="http://www.w3.org/1999/xlink" x="0px" y="0px"
	 viewBox="0 0 1925.9 456.5" style="enable-background:new 0 0 1925.9 456.5;" xml:space="preserve">
<style type="text/css">
	.st0{fill:#F300B4;}
	.st1{fill:#FCFCFC;}
	.st2{fill:#FCFCFC;stroke:#F9F9F9;stroke-miterlimit:10;}
	.st3{fill:#FFFFFF;}
</style>
<g id="Слой_1">
	<path class="st0" d="M965.7,6c0.1,0,0.3-0.1,0.4-0.1c6.9-0.9,12.9-1.9,19.9-2.8c1.8-0.1,4.1-1.2,5.9-1.2c0.7-0.2,1.5,0,2.4,0.3
		c2.2,0.6,4.6,0.2,6.5-1.1c0.5-0.3,1.1-0.6,1.9-0.8c0.7-0.1,1.3-0.2,2-0.3L1.9-0.1c-5.9,0-10,6.1-7.5,11.5c0.1,0.2,0.2,0.4,0.3,0.6
		c1.2,2.4,1.1,5.2-0.1,7.5c-2.8,5.6-2.2,12.2,1.1,17.3c0.9,1.4,1.3,3,1.2,4.7c-0.3,8.9-0.2,17.9-0.2,26.8c0,1.6,0,3.2-0.1,4.8
		c-0.3,4,2.3,7.6,6.1,8.6c32.9,8.6,74.1,9.2,83.1,9.2c1.2,0,2.3,0.2,3.4,0.7c34.5,16.2,28.6,35.9,23.2,45.1
		c-2.1,3.6-1.2,8.2,2.1,10.7c33.6,25.6,71.4-38.6,93.1-23.5c22,15.3-26.3,106.2-30.7,114.4c-0.2,0.4-0.4,0.8-0.5,1.3
		c-49.4,146.6,84.2,197.4,94.6,201.1c0.4,0.1,0.8,0.3,1.2,0.3c98.8,18.5,150.6-64.7,134.9-140c-11.8-56.7-85-97.7-76-150
		c21-122,186.5-110.1,270.5-127.1c51.6-10.4,226-17.1,361.2-17.5c0.4,0,0.9,0,1.3-0.1C964.5,6.1,965.3,6.1,965.7,6z"/>
	<path class="st1" d="M583.4,81.1"/>
	<path class="st1" d="M279.4,245.8"/>
	<path class="st1" d="M414.4,326.7"/>
	<path class="st2" d="M1554.5,250.8"/>
	<path class="st1" d="M406.5,235.8"/>
	<path class="st3" d="M218,140.9c0,0,1,30-18,72"/>
	<path class="st3" d="M124,122.9c0,0,0-23-36-38c0,0,38,7,36,39"/>
	<path class="st3" d="M9,75.9c0,0,39,9,49,6"/>
	<path class="st3" d="M115,137.9c0,0-3,11,12,12S117,150.9,115,137.9z"/>
	<path class="st3" d="M394.3,339.9c-6.8,3.5-19,12.3-21.8,31.1c-0.6,3.8,3.3,6.8,6.9,5.3c10.9-4.6,29.1-15.3,21.8-33.8
		C400.1,339.7,396.9,338.6,394.3,339.9z"/>
	<path class="st3" d="M183,277.9l31.9,2.6c3.2,0.2,5.6,3.1,5.1,6.3c-2,15-5.3,55.7,11.7,86.8c2,3.7-0.7,8.3-4.9,8.3h-19.4
		c-1.7,0-3.3-0.8-4.4-2.1c-5.5-6.9-25.4-32.5-27.1-95.9C175.9,280.6,179.7,277.7,183,277.9z"/>
	<path class="st3" d="M363,71.9c0.8-0.6-52,29-45,75S323,98.9,363,71.9z"/>
</g>
<g id="Слой_2">
</g>
</svg>
