<?xml version="1.0" encoding="utf-8"?>
<!-- Generator: Adobe Illustrator 24.3.0, SVG Export Plug-In . SVG Version: 6.00 Build 0)  -->
<svg version="1.1" id="Слой_1" xmlns="http://www.w3.org/2000/svg" xmlns:xlink="http://www.w3.org/1999/xlink" x="0px" y="0px"
	 viewBox="0 0 1925.9 456.5" style="enable-background:new 0 0 1925.9 456.5;" xml:space="preserve">
<style type="text/css">
	.st0{fill:#FFFFFF;}
	.st1{fill:#F300B4;}
	.st2{fill:#F300B4;stroke:#F9F9F9;stroke-miterlimit:10;}
</style>
<g id="Слой_1_1_">
	<path class="st0" d="M963.7,6.3c0.4,0.1,0.9,0.1,1.3,0.1c135.2,0.4,309.6,7.1,361.2,17.5c84,17,249.5,5.1,270.5,127.1
		c9,52.3-64.2,93.3-76,150c-15.7,75.3,36.1,158.5,134.9,140c0.4,0,0.8-0.2,1.2-0.3c10.4-3.7,144-54.5,94.6-201.1
		c-0.1-0.5-0.3-0.9-0.5-1.3c-4.4-8.2-52.7-99.1-30.7-114.4c21.7-15.1,59.5,49.1,93.1,23.5c3.3-2.5,4.2-7.1,2.1-10.7
		c-5.4-9.2-11.3-28.9,23.2-45.1c1.1-0.5,2.2-0.7,3.4-0.7c9,0,50.2-0.6,83.1-9.2c3.8-1,6.4-4.6,6.1-8.6c-0.1-1.6-0.1-3.2-0.1-4.8
		c0-8.9,0.1-17.9-0.2-26.8c-0.1-1.7,0.3-3.3,1.2-4.7c3.3-5.1,3.9-11.7,1.1-17.3c-1.2-2.3-1.3-5.1-0.1-7.5c0.1-0.2,0.2-0.4,0.3-0.6
		c2.5-5.4-1.6-11.5-7.5-11.5L923.1,0c0.7,0.1,1.3,0.2,2,0.3c0.8,0.2,1.4,0.5,1.9,0.8c1.9,1.3,4.3,1.7,6.5,1.1
		c0.9-0.3,1.7-0.5,2.4-0.3c1.8,0,4.1,1.1,5.9,1.2c7,0.9,13,1.9,19.9,2.8c0.1,0,0.3,0.1,0.4,0.1C962.5,6.1,963.3,6.1,963.7,6.3z"/>
	<path class="st1" d="M1344.4,81.1"/>
	<path class="st1" d="M1648.4,245.8"/>
	<path class="st1" d="M1513.4,326.7"/>
	<path class="st2" d="M373.3,250.8"/>
	<path class="st1" d="M1521.3,235.8"/>
	<path d="M1727.8,212.9c-19-42-18-72-18-72"/>
	<path d="M1803.8,123.9c-2-32,36-39,36-39c-36,15-36,38-36,38"/>
	<path d="M1869.8,81.9c10,3,49-6,49-6"/>
	<path d="M1800.8,149.9c15-1,12-12,12-12C1810.8,150.9,1785.8,150.9,1800.8,149.9z"/>
	<path d="M1526.6,342.5c-7.3,18.5,10.9,29.2,21.8,33.8c3.6,1.5,7.5-1.5,6.9-5.3c-2.8-18.8-15-27.6-21.8-31.1
		C1530.9,338.6,1527.7,339.7,1526.6,342.5z"/>
	<path d="M1751.9,283.9c-1.7,63.4-21.6,89-27.1,95.9c-1.1,1.3-2.7,2.1-4.4,2.1H1701c-4.2,0-6.9-4.6-4.9-8.3
		c17-31.1,13.7-71.8,11.7-86.8c-0.5-3.2,1.9-6.1,5.1-6.3l31.9-2.6C1748.1,277.7,1751.9,280.6,1751.9,283.9z"/>
	<path d="M1609.8,146.9c7-46-45.8-75.6-45-75C1604.8,98.9,1602.8,192.9,1609.8,146.9z"/>
</g>
<g id="Слой_2_1_">
</g>
</svg>
